<?xml version="1.0" encoding="UTF-8"?>
<!DOCTYPE svg PUBLIC "-//W3C//DTD SVG 1.1//EN" "http://www.w3.org/Graphics/SVG/1.1/DTD/svg11.dtd">
<svg xmlns="http://www.w3.org/2000/svg" version="1.1" width="1012px" height="423px" style="shape-rendering:geometricPrecision; text-rendering:geometricPrecision; image-rendering:optimizeQuality; fill-rule:evenodd; clip-rule:evenodd" xmlns:xlink="http://www.w3.org/1999/xlink">
<g><path style="opacity:1" fill="#fefefe" d="M -0.5,-0.5 C 336.833,-0.5 674.167,-0.5 1011.5,-0.5C 1011.5,140.5 1011.5,281.5 1011.5,422.5C 674.167,422.5 336.833,422.5 -0.5,422.5C -0.5,281.5 -0.5,140.5 -0.5,-0.5 Z"/></g>
<g><path style="opacity:1" fill="#3da25a" d="M 510.5,24.5 C 494.167,23.1667 477.833,23.1667 461.5,24.5C 477.833,21.8333 494.167,21.8333 510.5,24.5 Z"/></g>
<g><path style="opacity:1" fill="#1fb54a" d="M 510.5,24.5 C 517.422,24.6557 524.089,25.6557 530.5,27.5C 531.78,29.1058 531.28,30.1058 529,30.5C 523.278,28.904 517.445,28.2373 511.5,28.5C 503.695,27.1688 495.528,26.5021 487,26.5C 475.109,26.3172 463.276,26.9838 451.5,28.5C 450.5,28.3333 449.5,28.1667 448.5,28C 452.442,27.0071 456.442,26.3404 460.5,26C 461.056,25.6174 461.389,25.1174 461.5,24.5C 477.833,23.1667 494.167,23.1667 510.5,24.5 Z"/></g>
<g><path style="opacity:1" fill="#fdfefd" d="M 511.5,28.5 C 576.46,37.6815 626.626,69.6815 662,124.5C 671.478,140.435 678.312,157.435 682.5,175.5C 684.645,185.209 686.312,194.875 687.5,204.5C 687.5,205.5 687.5,206.5 687.5,207.5C 686.246,293.552 646.58,354.386 568.5,390C 550.117,397.64 531.117,402.806 511.5,405.5C 507.5,405.5 503.5,405.5 499.5,405.5C 490.494,405.666 481.494,405.5 472.5,405C 464.233,403.507 455.899,402.673 447.5,402.5C 377.57,389.059 327.737,350.059 298,285.5C 290.661,266.811 286.161,247.478 284.5,227.5C 284.328,214.119 284.995,200.786 286.5,187.5C 301.042,119.786 340.042,71.9524 403.5,44C 438.2,29.9953 474.2,24.8286 511.5,28.5 Z"/></g>
<g><path style="opacity:1" fill="#4db76e" d="M 535.5,52.5 C 529.516,51.6679 523.516,51.5012 517.5,52C 514.673,53.6636 511.673,54.8303 508.5,55.5C 510.927,53.4424 513.593,51.6091 516.5,50C 521.833,49.3333 527.167,49.3333 532.5,50C 533.571,50.8518 534.571,51.6851 535.5,52.5 Z"/></g>
<g><path style="opacity:1" fill="#1fb24c" d="M 535.5,52.5 C 538.061,54.3714 540.561,56.3714 543,58.5C 543.494,60.1341 543.66,61.8008 543.5,63.5C 544.5,63.5 545.5,63.5 546.5,63.5C 546.666,68.8437 546.499,74.1771 546,79.5C 544.906,81.0779 544.072,82.7446 543.5,84.5C 536.308,92.8822 527.308,95.8822 516.5,93.5C 502.008,85.5239 498.175,73.8572 505,58.5C 506.039,57.2899 507.206,56.2899 508.5,55.5C 511.673,54.8303 514.673,53.6636 517.5,52C 523.516,51.5012 529.516,51.6679 535.5,52.5 Z"/></g>
<g><path style="opacity:1" fill="#dbf4dd" d="M 543.5,84.5 C 541.7,86.8283 540.533,89.495 540,92.5C 538.686,93.3128 537.519,94.3128 536.5,95.5C 530.255,95.4744 523.922,95.3078 517.5,95C 516.944,94.6174 516.611,94.1174 516.5,93.5C 527.308,95.8822 536.308,92.8822 543.5,84.5 Z"/></g>
<g><path style="opacity:1" fill="#2faf52" d="M 461.5,24.5 C 461.389,25.1174 461.056,25.6174 460.5,26C 456.442,26.3404 452.442,27.0071 448.5,28C 449.5,28.1667 450.5,28.3333 451.5,28.5C 463.276,26.9838 475.109,26.3172 487,26.5C 495.528,26.5021 503.695,27.1688 511.5,28.5C 474.2,24.8286 438.2,29.9953 403.5,44C 340.042,71.9524 301.042,119.786 286.5,187.5C 285.187,191.944 284.354,196.611 284,201.5C 283.667,200.833 283.333,200.167 283,199.5C 282.667,200.833 282.333,202.167 282,203.5C 281.831,198.172 281.998,192.838 282.5,187.5C 290.161,143.342 310.494,106.175 343.5,76C 377.282,46.5566 416.616,29.3899 461.5,24.5 Z"/></g>
<g><path style="opacity:1" fill="#8ad8a4" d="M 554.5,98.5 C 529.5,98.5 504.5,98.5 479.5,98.5C 468.654,98.1722 457.987,98.5056 447.5,99.5C 445.571,99.7692 443.905,99.2692 442.5,98C 480.002,97.1689 517.336,97.3356 554.5,98.5 Z"/></g>
<g><path style="opacity:1" fill="#2ead57" d="M 479.5,98.5 C 504.5,98.5 529.5,98.5 554.5,98.5C 556.535,104.646 558.201,110.979 559.5,117.5C 556.144,116.975 554.311,114.975 554,111.5C 554.158,107.541 554.325,103.541 554.5,99.5C 529.328,99.831 504.328,99.4977 479.5,98.5 Z"/></g>
<g><path style="opacity:1" fill="#2eaf53" d="M 530.5,27.5 C 591.011,40.5224 637.178,73.5224 669,126.5C 677.647,142.278 683.814,158.945 687.5,176.5C 687.462,180.363 687.795,184.196 688.5,188C 688.546,189.728 688.046,191.228 687,192.5C 686.383,187.462 685.549,182.462 684.5,177.5C 684.253,176.287 683.586,175.62 682.5,175.5C 678.312,157.435 671.478,140.435 662,124.5C 626.626,69.6815 576.46,37.6815 511.5,28.5C 517.445,28.2373 523.278,28.904 529,30.5C 531.28,30.1058 531.78,29.1058 530.5,27.5 Z"/></g>
<g><path style="opacity:1" fill="#1cb24b" d="M 479.5,98.5 C 504.328,99.4977 529.328,99.831 554.5,99.5C 554.325,103.541 554.158,107.541 554,111.5C 554.311,114.975 556.144,116.975 559.5,117.5C 561.045,122.76 562.378,128.093 563.5,133.5C 564.471,139.371 565.804,145.037 567.5,150.5C 568.928,153.303 569.595,156.303 569.5,159.5C 569.5,162.5 569.5,165.5 569.5,168.5C 550.164,168.667 530.83,168.5 511.5,168C 510.001,157.216 508.501,146.383 507,135.5C 506.722,134.584 506.222,133.918 505.5,133.5C 505.334,128.489 505.501,123.489 506,118.5C 507.242,117.128 508.742,116.128 510.5,115.5C 511.614,114.277 511.781,112.944 511,111.5C 504.073,116.482 496.906,116.648 489.5,112C 491.5,111.667 493.5,111.333 495.5,111C 490.156,110.529 484.822,110.029 479.5,109.5C 477.801,109.66 476.134,109.494 474.5,109C 465.33,105.969 456.33,102.802 447.5,99.5C 457.987,98.5056 468.654,98.1722 479.5,98.5 Z"/></g>
<g><path style="opacity:1" fill="#2daf56" d="M 479.5,109.5 C 484.822,110.029 490.156,110.529 495.5,111C 493.5,111.333 491.5,111.667 489.5,112C 496.906,116.648 504.073,116.482 511,111.5C 511.781,112.944 511.614,114.277 510.5,115.5C 508.742,116.128 507.242,117.128 506,118.5C 505.501,123.489 505.334,128.489 505.5,133.5C 504.249,128.473 503.249,123.306 502.5,118C 494.443,115.612 486.776,112.779 479.5,109.5 Z"/></g>
<g><path style="opacity:1" fill="#76c691" d="M 563.5,133.5 C 565.933,138.788 567.266,144.455 567.5,150.5C 565.804,145.037 564.471,139.371 563.5,133.5 Z"/></g>
<g><path style="opacity:1" fill="#239353" d="M 434.5,159.5 C 432.458,157.17 429.792,156.004 426.5,156C 419.508,155.5 412.508,155.334 405.5,155.5C 404.402,154.399 404.235,153.066 405,151.5C 413.832,141.16 417.332,129.16 415.5,115.5C 419.443,116.568 423.11,118.402 426.5,121C 431.42,123.196 436.42,125.196 441.5,127C 452.495,127.5 463.495,127.667 474.5,127.5C 474.649,128.552 474.483,129.552 474,130.5C 468.306,136.194 462.64,141.86 457,147.5C 456,149.5 455,151.5 454,153.5C 453.805,158.418 453.305,163.251 452.5,168C 451.5,168.667 450.5,168.667 449.5,168C 444.594,164.911 439.594,162.077 434.5,159.5 Z"/></g>
<g><path style="opacity:1" fill="#ceeeda" d="M 421.5,122.5 C 420.673,127.985 420.173,133.652 420,139.5C 419.23,138.402 418.397,138.402 417.5,139.5C 418.631,133.535 419.631,127.535 420.5,121.5C 421.107,121.624 421.44,121.957 421.5,122.5 Z"/></g>
<g><path style="opacity:1" fill="#f7fbf8" d="M 421.5,122.5 C 427.467,126.773 434.133,129.607 441.5,131C 449.833,131.333 458.167,131.667 466.5,132C 461.679,136.655 457.012,141.488 452.5,146.5C 450.374,151.617 449.04,156.95 448.5,162.5C 443.156,158.826 437.49,155.66 431.5,153C 424.841,152.12 418.174,151.286 411.5,150.5C 414.325,147.177 416.325,143.51 417.5,139.5C 418.397,138.402 419.23,138.402 420,139.5C 420.173,133.652 420.673,127.985 421.5,122.5 Z"/></g>
<g><path style="opacity:1" fill="#d6f4df" d="M 405.5,155.5 C 412.508,155.334 419.508,155.5 426.5,156C 429.792,156.004 432.458,157.17 434.5,159.5C 424.818,157.313 415.152,155.98 405.5,155.5 Z"/></g>
<g><path style="opacity:1" fill="#30ad5a" d="M 505.5,133.5 C 506.222,133.918 506.722,134.584 507,135.5C 508.501,146.383 510.001,157.216 511.5,168C 530.83,168.5 550.164,168.667 569.5,168.5C 569.5,165.5 569.5,162.5 569.5,159.5C 570.581,162.627 571.247,165.96 571.5,169.5C 550.833,169.5 530.167,169.5 509.5,169.5C 507.512,157.594 506.179,145.594 505.5,133.5 Z"/></g>
<g><path style="opacity:1" fill="#79cd91" d="M 571.5,191.5 C 571.5,185.833 571.5,180.167 571.5,174.5C 551.497,174.333 531.497,174.5 511.5,175C 510.699,179.966 509.699,184.799 508.5,189.5C 508.687,184.155 509.02,178.822 509.5,173.5C 530.5,173.5 551.5,173.5 572.5,173.5C 572.823,179.69 572.49,185.69 571.5,191.5 Z"/></g>
<g><path style="opacity:1" fill="#1eb24c" d="M 571.5,191.5 C 570.978,218.526 569.812,245.526 568,272.5C 565.651,275.017 563.151,277.35 560.5,279.5C 558.194,274.906 556.194,270.239 554.5,265.5C 552.581,259.569 550.914,253.569 549.5,247.5C 548.857,242.399 547.691,237.399 546,232.5C 543.533,228.229 541.367,223.896 539.5,219.5C 538.661,218.359 537.994,217.026 537.5,215.5C 536.833,214.167 536.167,214.167 535.5,215.5C 532.637,222.09 529.97,228.756 527.5,235.5C 523.884,241.659 521.217,248.325 519.5,255.5C 514.063,268.345 508.563,281.345 503,294.5C 502.085,295.328 501.419,296.328 501,297.5C 500.192,293.973 500.359,290.64 501.5,287.5C 502.222,282.289 503.055,276.956 504,271.5C 505.121,250.121 506.288,228.788 507.5,207.5C 507.5,203.833 507.5,200.167 507.5,196.5C 507.448,194.097 507.781,191.764 508.5,189.5C 509.699,184.799 510.699,179.966 511.5,175C 531.497,174.5 551.497,174.333 571.5,174.5C 571.5,180.167 571.5,185.833 571.5,191.5 Z"/></g>
<g><path style="opacity:1" fill="#dafae6" d="M 476.5,182.5 C 442.832,182.333 409.165,182.5 375.5,183C 374.18,186.601 374.18,190.101 375.5,193.5C 376.833,194.167 378.167,194.833 379.5,195.5C 377.533,195.739 375.699,195.406 374,194.5C 373.204,190.245 373.371,186.079 374.5,182C 408.669,181.169 442.669,181.336 476.5,182.5 Z"/></g>
<g><path style="opacity:1" fill="#38a758" d="M 682.5,175.5 C 683.586,175.62 684.253,176.287 684.5,177.5C 685.549,182.462 686.383,187.462 687,192.5C 688.046,191.228 688.546,189.728 688.5,188C 687.795,184.196 687.462,180.363 687.5,176.5C 691.801,193.779 693.301,211.446 692,229.5C 691.821,233.025 691.321,236.359 690.5,239.5C 691.999,224.817 691.833,210.15 690,195.5C 689.333,194.167 688.667,194.167 688,195.5C 687.502,198.482 687.335,201.482 687.5,204.5C 686.312,194.875 684.645,185.209 682.5,175.5 Z"/></g>
<g><path style="opacity:1" fill="#d6f7de" d="M 507.5,196.5 C 507.5,200.167 507.5,203.833 507.5,207.5C 506.833,212.833 506.167,218.167 505.5,223.5C 505.334,215.493 505.5,207.493 506,199.5C 506.232,198.263 506.732,197.263 507.5,196.5 Z"/></g>
<g><path style="opacity:1" fill="#36a757" d="M 282.5,187.5 C 281.998,192.838 281.831,198.172 282,203.5C 282.333,202.167 282.667,200.833 283,199.5C 283.333,200.167 283.667,200.833 284,201.5C 284.354,196.611 285.187,191.944 286.5,187.5C 284.995,200.786 284.328,214.119 284.5,227.5C 283.833,220.988 283.167,214.321 282.5,207.5C 281.501,218.146 281.168,228.813 281.5,239.5C 278.689,222.115 279.022,204.781 282.5,187.5 Z"/></g>
<g><path style="opacity:1" fill="#1f9250" d="M 476.5,182.5 C 477.589,186.078 477.755,189.745 477,193.5C 475.301,194.406 473.467,194.739 471.5,194.5C 471.524,200.857 471.19,207.19 470.5,213.5C 468.439,220.558 467.439,227.891 467.5,235.5C 465,256.163 462.5,276.829 460,297.5C 459.292,298.381 458.458,299.047 457.5,299.5C 437.534,300.464 417.534,300.798 397.5,300.5C 394.919,299.425 392.753,297.758 391,295.5C 390.335,290.844 389.835,286.177 389.5,281.5C 390.117,281.611 390.617,281.944 391,282.5C 391.186,284.9 391.686,287.234 392.5,289.5C 393.172,288.051 393.839,286.718 394.5,285.5C 394.5,287.5 394.5,289.5 394.5,291.5C 394.261,293.467 394.594,295.301 395.5,297C 399.486,297.499 403.486,297.666 407.5,297.5C 407.5,293.833 407.5,290.167 407.5,286.5C 408.609,286.443 409.609,286.11 410.5,285.5C 415.907,283.674 415.574,282.674 409.5,282.5C 409.179,277.305 409.513,272.305 410.5,267.5C 410.5,272.167 410.5,276.833 410.5,281.5C 414.833,281.5 419.167,281.5 423.5,281.5C 423.5,276.833 423.5,272.167 423.5,267.5C 424.833,267.5 426.167,267.5 427.5,267.5C 427.5,272.167 427.5,276.833 427.5,281.5C 432.363,281.819 437.03,281.486 441.5,280.5C 441.5,276.167 441.5,271.833 441.5,267.5C 442.639,271.301 443.472,275.301 444,279.5C 444.177,275.644 444.677,271.977 445.5,268.5C 445.5,272.833 445.5,277.167 445.5,281.5C 449.833,281.5 454.167,281.5 458.5,281.5C 458.5,278.833 458.5,276.167 458.5,273.5C 459.461,271.735 459.795,269.735 459.5,267.5C 455.167,267.5 450.833,267.5 446.5,267.5C 449.5,266.907 452.5,266.074 455.5,265C 452.183,264.502 448.85,264.335 445.5,264.5C 445.823,260.774 445.489,257.107 444.5,253.5C 443.833,256.642 443.166,259.642 442.5,262.5C 442.5,261.833 442.5,261.167 442.5,260.5C 442.5,257.167 442.5,253.833 442.5,250.5C 437.695,249.513 432.695,249.179 427.5,249.5C 427.5,254.167 427.5,258.833 427.5,263.5C 420.543,264.386 413.543,264.72 406.5,264.5C 406.5,265.5 406.5,266.5 406.5,267.5C 401.833,267.5 397.167,267.5 392.5,267.5C 396.164,266.926 399.831,266.093 403.5,265C 399.312,264.824 395.312,264.324 391.5,263.5C 396.167,263.5 400.833,263.5 405.5,263.5C 405.5,260.833 405.5,258.167 405.5,255.5C 405.917,258.159 406.917,260.492 408.5,262.5C 408.833,262.5 409.167,262.5 409.5,262.5C 413.97,263.486 418.637,263.819 423.5,263.5C 423.5,259.167 423.5,254.833 423.5,250.5C 419.03,249.514 414.363,249.181 409.5,249.5C 409.567,248.041 409.234,246.708 408.5,245.5C 413.5,245.5 418.5,245.5 423.5,245.5C 424.486,241.03 424.819,236.363 424.5,231.5C 425.302,232.952 425.802,234.618 426,236.5C 426.21,234.942 426.71,233.609 427.5,232.5C 427.5,237.167 427.5,241.833 427.5,246.5C 433.026,246.821 438.36,246.488 443.5,245.5C 443.5,241.167 443.5,236.833 443.5,232.5C 438.5,232.5 433.5,232.5 428.5,232.5C 432.684,231.834 437.018,231.167 441.5,230.5C 442.602,229.824 443.602,229.158 444.5,228.5C 444.5,226.167 444.5,223.833 444.5,221.5C 444.5,219.5 444.5,217.5 444.5,215.5C 439.025,214.511 433.358,214.178 427.5,214.5C 427.5,218.833 427.5,223.167 427.5,227.5C 426.732,226.737 426.232,225.737 426,224.5C 425.598,225.872 425.098,227.205 424.5,228.5C 418.537,229.496 412.537,229.829 406.5,229.5C 406.82,226.102 406.487,222.768 405.5,219.5C 404.833,222.642 404.166,225.642 403.5,228.5C 403.5,223.833 403.5,219.167 403.5,214.5C 397.833,214.5 392.167,214.5 386.5,214.5C 385.5,214.5 384.5,214.5 383.5,214.5C 383.5,213.5 383.5,212.5 383.5,211.5C 390.022,211.823 396.355,211.49 402.5,210.5C 402.5,205.833 402.5,201.167 402.5,196.5C 396.5,196.5 390.5,196.5 384.5,196.5C 383.246,199.854 383.246,203.354 384.5,207C 384.192,208.459 383.525,209.626 382.5,210.5C 381.008,205.6 380.008,200.6 379.5,195.5C 378.167,194.833 376.833,194.167 375.5,193.5C 374.18,190.101 374.18,186.601 375.5,183C 409.165,182.5 442.832,182.333 476.5,182.5 Z"/></g>
<g><path style="opacity:1" fill="#f2fbf5" d="M 467.5,196.5 C 466.873,201.141 466.54,205.807 466.5,210.5C 460.833,210.5 455.167,210.5 449.5,210.5C 449.2,205.901 449.533,201.401 450.5,197C 456.157,196.501 461.824,196.334 467.5,196.5 Z"/></g>
<g><path style="opacity:1" fill="#f9fdfa" d="M 445.5,197.5 C 445.5,201.833 445.5,206.167 445.5,210.5C 439.833,210.5 434.167,210.5 428.5,210.5C 428.5,206.167 428.5,201.833 428.5,197.5C 434.167,197.5 439.833,197.5 445.5,197.5 Z"/></g>
<g><path style="opacity:1" fill="#f9fcfb" d="M 423.5,197.5 C 423.5,201.833 423.5,206.167 423.5,210.5C 417.833,210.5 412.167,210.5 406.5,210.5C 406.5,207.833 406.5,205.167 406.5,202.5C 406.5,200.833 406.5,199.167 406.5,197.5C 412.167,197.5 417.833,197.5 423.5,197.5 Z"/></g>
<g><path style="opacity:1" fill="#f9fcfa" d="M 401.5,210.5 C 396.167,210.5 390.833,210.5 385.5,210.5C 385.5,208.167 385.5,205.833 385.5,203.5C 385.5,201.5 385.5,199.5 385.5,197.5C 390.833,197.5 396.167,197.5 401.5,197.5C 401.5,201.833 401.5,206.167 401.5,210.5 Z"/></g>
<g><path style="opacity:1" fill="#9cd7b4" d="M 427.5,196.5 C 433.5,196.5 439.5,196.5 445.5,196.5C 445.5,196.833 445.5,197.167 445.5,197.5C 439.833,197.5 434.167,197.5 428.5,197.5C 428.5,201.833 428.5,206.167 428.5,210.5C 427.514,206.03 427.181,201.363 427.5,196.5 Z"/></g>
<g><path style="opacity:1" fill="#9edbb9" d="M 423.5,197.5 C 417.833,197.5 412.167,197.5 406.5,197.5C 406.5,199.167 406.5,200.833 406.5,202.5C 405.539,200.735 405.205,198.735 405.5,196.5C 411.69,196.177 417.69,196.51 423.5,197.5 Z"/></g>
<g><path style="opacity:1" fill="#a4dcbc" d="M 384.5,196.5 C 390.5,196.5 396.5,196.5 402.5,196.5C 402.5,201.167 402.5,205.833 402.5,210.5C 402.167,210.5 401.833,210.5 401.5,210.5C 401.5,206.167 401.5,201.833 401.5,197.5C 396.167,197.5 390.833,197.5 385.5,197.5C 385.5,199.5 385.5,201.5 385.5,203.5C 384.532,201.393 384.198,199.059 384.5,196.5 Z"/></g>
<g><path style="opacity:1" fill="#049246" d="M 467.5,196.5 C 467.389,195.883 467.056,195.383 466.5,195C 459.292,194.054 452.292,194.554 445.5,196.5C 439.5,196.5 433.5,196.5 427.5,196.5C 425.641,196.539 424.308,195.706 423.5,194C 426.544,193.641 426.878,192.974 424.5,192C 437.5,191.667 450.5,191.333 463.5,191C 436.833,190.333 410.167,190.333 383.5,191C 381.192,192.936 378.525,193.769 375.5,193.5C 375.5,190.5 375.5,187.5 375.5,184.5C 408.833,184.5 442.167,184.5 475.5,184.5C 475.813,187.247 475.48,189.914 474.5,192.5C 473.251,190.525 471.751,190.191 470,191.5C 468.833,189.833 467.667,188.167 466.5,186.5C 465.548,188.045 465.215,189.712 465.5,191.5C 469.605,191.496 471.105,193.496 470,197.5C 469.329,196.748 468.496,196.414 467.5,196.5 Z"/></g>
<g><path style="opacity:1" fill="#aee1c3" d="M 386.5,214.5 C 392.167,214.5 397.833,214.5 403.5,214.5C 403.5,219.167 403.5,223.833 403.5,228.5C 398.167,228.5 392.833,228.5 387.5,228.5C 387.5,226.167 387.5,223.833 387.5,221.5C 386.532,219.393 386.198,217.059 386.5,214.5 Z"/></g>
<g><path style="opacity:1" fill="#a8ddbe" d="M 444.5,215.5 C 439.167,215.5 433.833,215.5 428.5,215.5C 428.5,219.5 428.5,223.5 428.5,227.5C 433.5,227.5 438.5,227.5 443.5,227.5C 443.205,225.265 443.539,223.265 444.5,221.5C 444.5,223.833 444.5,226.167 444.5,228.5C 438.642,228.822 432.975,228.489 427.5,227.5C 427.5,223.167 427.5,218.833 427.5,214.5C 433.358,214.178 439.025,214.511 444.5,215.5 Z"/></g>
<g><path style="opacity:1" fill="#a9e1bf" d="M 463.5,227.5 C 463.833,223.5 464.167,219.5 464.5,215.5C 459.5,215.5 454.5,215.5 449.5,215.5C 449.81,218.713 449.477,221.713 448.5,224.5C 448.5,221.167 448.5,217.833 448.5,214.5C 454.167,214.5 459.833,214.5 465.5,214.5C 465.844,219.122 465.177,223.455 463.5,227.5 Z"/></g>
<g><path style="opacity:1" fill="#f8fbfa" d="M 463.5,227.5 C 458.695,228.487 453.695,228.821 448.5,228.5C 448.5,227.167 448.5,225.833 448.5,224.5C 449.477,221.713 449.81,218.713 449.5,215.5C 454.5,215.5 459.5,215.5 464.5,215.5C 464.167,219.5 463.833,223.5 463.5,227.5 Z"/></g>
<g><path style="opacity:1" fill="#fbfcfb" d="M 387.5,221.5 C 387.5,219.5 387.5,217.5 387.5,215.5C 392.5,215.5 397.5,215.5 402.5,215.5C 402.5,219.5 402.5,223.5 402.5,227.5C 397.833,227.5 393.167,227.5 388.5,227.5C 388.795,225.265 388.461,223.265 387.5,221.5 Z"/></g>
<g><path style="opacity:1" fill="#fafcfc" d="M 407.5,227.5 C 407.5,224.5 407.5,221.5 407.5,218.5C 407.5,217.5 407.5,216.5 407.5,215.5C 412.463,216.254 417.463,216.587 422.5,216.5C 422.5,220.167 422.5,223.833 422.5,227.5C 417.5,227.5 412.5,227.5 407.5,227.5 Z"/></g>
<g><path style="opacity:1" fill="#fafcfb" d="M 444.5,215.5 C 444.5,217.5 444.5,219.5 444.5,221.5C 443.539,223.265 443.205,225.265 443.5,227.5C 438.5,227.5 433.5,227.5 428.5,227.5C 428.5,223.5 428.5,219.5 428.5,215.5C 433.833,215.5 439.167,215.5 444.5,215.5 Z"/></g>
<g><path style="opacity:1" fill="#caf1da" d="M 407.5,227.5 C 412.5,227.5 417.5,227.5 422.5,227.5C 422.5,223.833 422.5,220.167 422.5,216.5C 417.463,216.587 412.463,216.254 407.5,215.5C 407.5,216.5 407.5,217.5 407.5,218.5C 406.566,217.432 406.232,216.099 406.5,214.5C 412.167,214.5 417.833,214.5 423.5,214.5C 423.5,219.167 423.5,223.833 423.5,228.5C 417.974,228.821 412.64,228.488 407.5,227.5 Z"/></g>
<g><path style="opacity:1" fill="#b3e2c6" d="M 470.5,213.5 C 470.228,221.066 469.228,228.399 467.5,235.5C 467.439,227.891 468.439,220.558 470.5,213.5 Z"/></g>
<g><path style="opacity:1" fill="#2c965a" d="M 384.5,196.5 C 384.198,199.059 384.532,201.393 385.5,203.5C 385.5,205.833 385.5,208.167 385.5,210.5C 390.833,210.5 396.167,210.5 401.5,210.5C 401.833,210.5 402.167,210.5 402.5,210.5C 396.355,211.49 390.022,211.823 383.5,211.5C 383.5,212.5 383.5,213.5 383.5,214.5C 384.5,214.5 385.5,214.5 386.5,214.5C 386.198,217.059 386.532,219.393 387.5,221.5C 387.5,223.833 387.5,226.167 387.5,228.5C 392.833,228.5 398.167,228.5 403.5,228.5C 399.316,229.166 394.982,229.833 390.5,230.5C 394.982,231.167 399.316,231.834 403.5,232.5C 398.5,232.5 393.5,232.5 388.5,232.5C 388.739,236.842 389.073,241.176 389.5,245.5C 388.5,245.5 387.5,245.5 386.5,245.5C 386.5,246.833 386.5,248.167 386.5,249.5C 386.167,249.5 385.833,249.5 385.5,249.5C 384.252,236.519 383.252,223.519 382.5,210.5C 383.525,209.626 384.192,208.459 384.5,207C 383.246,203.354 383.246,199.854 384.5,196.5 Z"/></g>
<g><path style="opacity:1" fill="#499b6d" d="M 408.5,232.5 C 413.64,231.512 418.974,231.179 424.5,231.5C 424.819,236.363 424.486,241.03 423.5,245.5C 423.5,241.167 423.5,236.833 423.5,232.5C 418.5,232.5 413.5,232.5 408.5,232.5 Z"/></g>
<g><path style="opacity:1" fill="#42b265" d="M 539.5,219.5 C 541.367,223.896 543.533,228.229 546,232.5C 547.691,237.399 548.857,242.399 549.5,247.5C 547.975,244.921 546.641,242.254 545.5,239.5C 542.987,233.099 540.987,226.433 539.5,219.5 Z"/></g>
<g><path style="opacity:1" fill="#f3faf7" d="M 447.5,232.5 C 452.833,232.5 458.167,232.5 463.5,232.5C 463.261,236.842 462.927,241.176 462.5,245.5C 457.5,245.5 452.5,245.5 447.5,245.5C 447.5,241.167 447.5,236.833 447.5,232.5 Z"/></g>
<g><path style="opacity:1" fill="#80c79e" d="M 427.5,232.5 C 427.833,232.5 428.167,232.5 428.5,232.5C 428.5,236.833 428.5,241.167 428.5,245.5C 433.5,245.5 438.5,245.5 443.5,245.5C 438.36,246.488 433.026,246.821 427.5,246.5C 427.5,241.833 427.5,237.167 427.5,232.5 Z"/></g>
<g><path style="opacity:1" fill="#f6fcf8" d="M 403.5,232.5 C 403.5,236.833 403.5,241.167 403.5,245.5C 398.833,245.5 394.167,245.5 389.5,245.5C 389.073,241.176 388.739,236.842 388.5,232.5C 393.5,232.5 398.5,232.5 403.5,232.5 Z"/></g>
<g><path style="opacity:1" fill="#f6fcf9" d="M 428.5,232.5 C 433.5,232.5 438.5,232.5 443.5,232.5C 443.5,236.833 443.5,241.167 443.5,245.5C 438.5,245.5 433.5,245.5 428.5,245.5C 428.5,241.167 428.5,236.833 428.5,232.5 Z"/></g>
<g><path style="opacity:1" fill="#dcfae7" d="M 408.5,232.5 C 413.5,232.5 418.5,232.5 423.5,232.5C 423.5,236.833 423.5,241.167 423.5,245.5C 418.5,245.5 413.5,245.5 408.5,245.5C 407.689,240.994 407.689,236.66 408.5,232.5 Z"/></g>
<g><path style="opacity:1" fill="#fbfbfc" d="M 408.5,233.5 C 412.833,233.5 417.167,233.5 421.5,233.5C 422.244,237.119 422.577,240.785 422.5,244.5C 418.167,244.5 413.833,244.5 409.5,244.5C 409.448,240.802 409.114,237.135 408.5,233.5 Z"/></g>
<g><path style="opacity:1" fill="#1eb249" d="M 690.5,239.5 C 689.835,241.698 689.168,244.031 688.5,246.5C 688.167,245.333 687.833,244.167 687.5,243C 688.77,231.011 688.77,219.178 687.5,207.5C 687.5,206.5 687.5,205.5 687.5,204.5C 687.335,201.482 687.502,198.482 688,195.5C 688.667,194.167 689.333,194.167 690,195.5C 691.833,210.15 691.999,224.817 690.5,239.5 Z"/></g>
<g><path style="opacity:1" fill="#8bcba3" d="M 403.5,232.5 C 404.486,236.97 404.819,241.637 404.5,246.5C 399.305,246.821 394.305,246.487 389.5,245.5C 394.167,245.5 398.833,245.5 403.5,245.5C 403.5,241.167 403.5,236.833 403.5,232.5 Z"/></g>
<g><path style="opacity:1" fill="#d7f6dc" d="M 527.5,235.5 C 526.363,242.937 523.697,249.604 519.5,255.5C 521.217,248.325 523.884,241.659 527.5,235.5 Z"/></g>
<g><path style="opacity:1" fill="#109149" d="M 427.5,227.5 C 432.975,228.489 438.642,228.822 444.5,228.5C 443.602,229.158 442.602,229.824 441.5,230.5C 437.018,231.167 432.684,231.834 428.5,232.5C 428.167,232.5 427.833,232.5 427.5,232.5C 426.71,233.609 426.21,234.942 426,236.5C 425.802,234.618 425.302,232.952 424.5,231.5C 418.974,231.179 413.64,231.512 408.5,232.5C 407.689,236.66 407.689,240.994 408.5,245.5C 409.234,246.708 409.567,248.041 409.5,249.5C 408.515,253.634 408.182,257.968 408.5,262.5C 406.917,260.492 405.917,258.159 405.5,255.5C 405.784,253.585 405.451,251.919 404.5,250.5C 399.695,249.513 394.695,249.179 389.5,249.5C 389.123,254.453 389.789,259.119 391.5,263.5C 395.312,264.324 399.312,264.824 403.5,265C 399.831,266.093 396.164,266.926 392.5,267.5C 392.198,270.059 392.532,272.393 393.5,274.5C 393.5,274.833 393.5,275.167 393.5,275.5C 393.5,277.5 393.5,279.5 393.5,281.5C 397.833,281.5 402.167,281.5 406.5,281.5C 406.5,276.833 406.5,272.167 406.5,267.5C 406.5,266.5 406.5,265.5 406.5,264.5C 413.543,264.72 420.543,264.386 427.5,263.5C 432.695,263.821 437.695,263.487 442.5,262.5C 443.166,259.642 443.833,256.642 444.5,253.5C 445.489,257.107 445.823,260.774 445.5,264.5C 448.85,264.335 452.183,264.502 455.5,265C 452.5,266.074 449.5,266.907 446.5,267.5C 445.833,267.5 445.5,267.833 445.5,268.5C 444.677,271.977 444.177,275.644 444,279.5C 443.472,275.301 442.639,271.301 441.5,267.5C 437.167,267.5 432.833,267.5 428.5,267.5C 428.167,267.5 427.833,267.5 427.5,267.5C 426.167,267.5 424.833,267.5 423.5,267.5C 419.167,267.5 414.833,267.5 410.5,267.5C 409.513,272.305 409.179,277.305 409.5,282.5C 415.574,282.674 415.907,283.674 410.5,285.5C 409.609,286.11 408.609,286.443 407.5,286.5C 407.5,285.833 407.167,285.5 406.5,285.5C 402.5,285.5 398.5,285.5 394.5,285.5C 393.839,286.718 393.172,288.051 392.5,289.5C 391.686,287.234 391.186,284.9 391,282.5C 390.617,281.944 390.117,281.611 389.5,281.5C 389.5,281.167 389.5,280.833 389.5,280.5C 388.775,270.138 387.775,259.804 386.5,249.5C 386.5,248.167 386.5,246.833 386.5,245.5C 387.5,245.5 388.5,245.5 389.5,245.5C 394.305,246.487 399.305,246.821 404.5,246.5C 404.819,241.637 404.486,236.97 403.5,232.5C 399.316,231.834 394.982,231.167 390.5,230.5C 394.982,229.833 399.316,229.166 403.5,228.5C 404.166,225.642 404.833,222.642 405.5,219.5C 406.487,222.768 406.82,226.102 406.5,229.5C 412.537,229.829 418.537,229.496 424.5,228.5C 425.098,227.205 425.598,225.872 426,224.5C 426.232,225.737 426.732,226.737 427.5,227.5 Z"/></g>
<g><path style="opacity:1" fill="#74bc95" d="M 409.5,249.5 C 414.363,249.181 419.03,249.514 423.5,250.5C 418.637,250.181 413.97,250.514 409.5,251.5C 409.5,251.833 409.5,252.167 409.5,252.5C 409.5,255.833 409.5,259.167 409.5,262.5C 409.167,262.5 408.833,262.5 408.5,262.5C 408.182,257.968 408.515,253.634 409.5,249.5 Z"/></g>
<g><path style="opacity:1" fill="#7bc19b" d="M 447.5,250.5 C 451.97,249.514 456.637,249.181 461.5,249.5C 461.813,253.042 461.479,256.375 460.5,259.5C 460.5,256.5 460.5,253.5 460.5,250.5C 456.167,250.5 451.833,250.5 447.5,250.5 Z"/></g>
<g><path style="opacity:1" fill="#f9fcf9" d="M 442.5,250.5 C 442.5,253.833 442.5,257.167 442.5,260.5C 438.067,262.301 433.4,262.967 428.5,262.5C 428.5,258.5 428.5,254.5 428.5,250.5C 433.167,250.5 437.833,250.5 442.5,250.5 Z"/></g>
<g><path style="opacity:1" fill="#f9fcfb" d="M 447.5,250.5 C 451.833,250.5 456.167,250.5 460.5,250.5C 460.5,253.5 460.5,256.5 460.5,259.5C 459.596,260.209 459.263,261.209 459.5,262.5C 455.5,262.5 451.5,262.5 447.5,262.5C 447.5,258.5 447.5,254.5 447.5,250.5 Z"/></g>
<g><path style="opacity:1" fill="#f9fbfb" d="M 404.5,250.5 C 404.5,254.5 404.5,258.5 404.5,262.5C 400.167,262.5 395.833,262.5 391.5,262.5C 391.354,258.481 391.021,254.481 390.5,250.5C 395.167,250.5 399.833,250.5 404.5,250.5 Z"/></g>
<g><path style="opacity:1" fill="#fbfbfc" d="M 409.5,252.5 C 409.5,252.167 409.5,251.833 409.5,251.5C 413.833,251.5 418.167,251.5 422.5,251.5C 422.5,255.167 422.5,258.833 422.5,262.5C 418.5,262.5 414.5,262.5 410.5,262.5C 410.813,258.958 410.479,255.625 409.5,252.5 Z"/></g>
<g><path style="opacity:1" fill="#459f6c" d="M 404.5,250.5 C 399.833,250.5 395.167,250.5 390.5,250.5C 391.021,254.481 391.354,258.481 391.5,262.5C 391.5,262.833 391.5,263.167 391.5,263.5C 389.789,259.119 389.123,254.453 389.5,249.5C 394.695,249.179 399.695,249.513 404.5,250.5 Z"/></g>
<g><path style="opacity:1" fill="#92d2ae" d="M 442.5,250.5 C 437.833,250.5 433.167,250.5 428.5,250.5C 428.5,254.5 428.5,258.5 428.5,262.5C 433.4,262.967 438.067,262.301 442.5,260.5C 442.5,261.167 442.5,261.833 442.5,262.5C 437.695,263.487 432.695,263.821 427.5,263.5C 427.5,258.833 427.5,254.167 427.5,249.5C 432.695,249.179 437.695,249.513 442.5,250.5 Z"/></g>
<g><path style="opacity:1" fill="#e0f6de" d="M 545.5,239.5 C 546.641,242.254 547.975,244.921 549.5,247.5C 550.914,253.569 552.581,259.569 554.5,265.5C 552.864,264.251 551.697,262.584 551,260.5C 549.134,253.458 547.301,246.458 545.5,239.5 Z"/></g>
<g><path style="opacity:1" fill="#2fae53" d="M 687.5,207.5 C 688.77,219.178 688.77,231.011 687.5,243C 687.833,244.167 688.167,245.333 688.5,246.5C 689.168,244.031 689.835,241.698 690.5,239.5C 684.412,286.85 663.746,326.35 628.5,358C 594.962,387.247 555.962,404.414 511.5,409.5C 519.043,407.653 519.043,406.653 511.5,406.5C 511.5,406.167 511.5,405.833 511.5,405.5C 531.117,402.806 550.117,397.64 568.5,390C 646.58,354.386 686.246,293.552 687.5,207.5 Z"/></g>
<g><path style="opacity:1" fill="#b5e9ca" d="M 404.5,250.5 C 405.451,251.919 405.784,253.585 405.5,255.5C 405.5,258.167 405.5,260.833 405.5,263.5C 400.833,263.5 396.167,263.5 391.5,263.5C 391.5,263.167 391.5,262.833 391.5,262.5C 395.833,262.5 400.167,262.5 404.5,262.5C 404.5,258.5 404.5,254.5 404.5,250.5 Z"/></g>
<g><path style="opacity:1" fill="#d5f8e4" d="M 409.5,251.5 C 413.97,250.514 418.637,250.181 423.5,250.5C 423.5,254.833 423.5,259.167 423.5,263.5C 418.637,263.819 413.97,263.486 409.5,262.5C 409.5,259.167 409.5,255.833 409.5,252.5C 410.479,255.625 410.813,258.958 410.5,262.5C 414.5,262.5 418.5,262.5 422.5,262.5C 422.5,258.833 422.5,255.167 422.5,251.5C 418.167,251.5 413.833,251.5 409.5,251.5 Z"/></g>
<g><path style="opacity:1" fill="#c1eed3" d="M 447.5,250.5 C 447.5,254.5 447.5,258.5 447.5,262.5C 451.5,262.5 455.5,262.5 459.5,262.5C 459.263,261.209 459.596,260.209 460.5,259.5C 460.5,260.833 460.5,262.167 460.5,263.5C 455.833,263.5 451.167,263.5 446.5,263.5C 446.182,258.968 446.515,254.634 447.5,250.5 Z"/></g>
<g><path style="opacity:1" fill="#4db76d" d="M 507.5,207.5 C 506.288,228.788 505.121,250.121 504,271.5C 503.055,276.956 502.222,282.289 501.5,287.5C 502.17,266.12 503.503,244.787 505.5,223.5C 506.167,218.167 506.833,212.833 507.5,207.5 Z"/></g>
<g><path style="opacity:1" fill="#fbfbfc" d="M 393.5,275.5 C 393.5,275.167 393.5,274.833 393.5,274.5C 393.5,272.5 393.5,270.5 393.5,268.5C 397.5,268.5 401.5,268.5 405.5,268.5C 405.5,272.167 405.5,275.833 405.5,279.5C 401.833,279.5 398.167,279.5 394.5,279.5C 394.768,277.901 394.434,276.568 393.5,275.5 Z"/></g>
<g><path style="opacity:1" fill="#f7fcf9" d="M 428.5,267.5 C 432.833,267.5 437.167,267.5 441.5,267.5C 441.5,271.833 441.5,276.167 441.5,280.5C 437.167,280.5 432.833,280.5 428.5,280.5C 428.5,276.167 428.5,271.833 428.5,267.5 Z"/></g>
<g><path style="opacity:1" fill="#cdf4df" d="M 410.5,267.5 C 414.833,267.5 419.167,267.5 423.5,267.5C 423.5,272.167 423.5,276.833 423.5,281.5C 419.167,281.5 414.833,281.5 410.5,281.5C 410.5,276.833 410.5,272.167 410.5,267.5 Z"/></g>
<g><path style="opacity:1" fill="#fbfbfc" d="M 411.5,268.5 C 415.167,268.5 418.833,268.5 422.5,268.5C 422.5,272.5 422.5,276.5 422.5,280.5C 418.833,280.5 415.167,280.5 411.5,280.5C 411.5,276.5 411.5,272.5 411.5,268.5 Z"/></g>
<g><path style="opacity:1" fill="#c3eed5" d="M 385.5,249.5 C 385.833,249.5 386.167,249.5 386.5,249.5C 387.775,259.804 388.775,270.138 389.5,280.5C 388.883,280.389 388.383,280.056 388,279.5C 386.752,269.536 385.919,259.536 385.5,249.5 Z"/></g>
<g><path style="opacity:1" fill="#c4eed5" d="M 392.5,267.5 C 397.167,267.5 401.833,267.5 406.5,267.5C 406.5,272.167 406.5,276.833 406.5,281.5C 402.167,281.5 397.833,281.5 393.5,281.5C 393.5,279.5 393.5,277.5 393.5,275.5C 394.434,276.568 394.768,277.901 394.5,279.5C 398.167,279.5 401.833,279.5 405.5,279.5C 405.5,275.833 405.5,272.167 405.5,268.5C 401.5,268.5 397.5,268.5 393.5,268.5C 393.5,270.5 393.5,272.5 393.5,274.5C 392.532,272.393 392.198,270.059 392.5,267.5 Z"/></g>
<g><path style="opacity:1" fill="#ccefda" d="M 446.5,267.5 C 450.833,267.5 455.167,267.5 459.5,267.5C 459.795,269.735 459.461,271.735 458.5,273.5C 458.5,276.167 458.5,278.833 458.5,281.5C 454.167,281.5 449.833,281.5 445.5,281.5C 445.5,277.167 445.5,272.833 445.5,268.5C 445.5,267.833 445.833,267.5 446.5,267.5 Z"/></g>
<g><path style="opacity:1" fill="#fcfcfc" d="M 458.5,273.5 C 457.539,275.265 457.205,277.265 457.5,279.5C 453.833,279.5 450.167,279.5 446.5,279.5C 446.5,275.833 446.5,272.167 446.5,268.5C 450.5,268.5 454.5,268.5 458.5,268.5C 458.5,270.167 458.5,271.833 458.5,273.5 Z"/></g>
<g><path style="opacity:1" fill="#8dcfaa" d="M 427.5,267.5 C 427.833,267.5 428.167,267.5 428.5,267.5C 428.5,271.833 428.5,276.167 428.5,280.5C 432.833,280.5 437.167,280.5 441.5,280.5C 437.03,281.486 432.363,281.819 427.5,281.5C 427.5,276.833 427.5,272.167 427.5,267.5 Z"/></g>
<g><path style="opacity:1" fill="#bce8ce" d="M 428.5,296.5 C 427.518,293.038 427.185,289.371 427.5,285.5C 431.833,285.5 436.167,285.5 440.5,285.5C 440.5,289.5 440.5,293.5 440.5,297.5C 436.298,297.817 432.298,297.483 428.5,296.5 Z"/></g>
<g><path style="opacity:1" fill="#bfebd1" d="M 456.5,290.5 C 456.5,289.167 456.5,287.833 456.5,286.5C 452.833,286.5 449.167,286.5 445.5,286.5C 445.5,289.833 445.5,293.167 445.5,296.5C 448.833,296.5 452.167,296.5 455.5,296.5C 452.038,297.482 448.371,297.815 444.5,297.5C 444.5,293.5 444.5,289.5 444.5,285.5C 448.833,285.5 453.167,285.5 457.5,285.5C 457.784,287.415 457.451,289.081 456.5,290.5 Z"/></g>
<g><path style="opacity:1" fill="#f9fcfc" d="M 428.5,296.5 C 428.5,293.167 428.5,289.833 428.5,286.5C 432.167,286.5 435.833,286.5 439.5,286.5C 439.5,289.833 439.5,293.167 439.5,296.5C 435.833,296.5 432.167,296.5 428.5,296.5 Z"/></g>
<g><path style="opacity:1" fill="#f6fbf8" d="M 394.5,285.5 C 398.5,285.5 402.5,285.5 406.5,285.5C 406.5,289.167 406.5,292.833 406.5,296.5C 403.15,296.665 399.817,296.498 396.5,296C 395.901,294.378 395.234,292.878 394.5,291.5C 394.5,289.5 394.5,287.5 394.5,285.5 Z"/></g>
<g><path style="opacity:1" fill="#fbfbfb" d="M 456.5,290.5 C 456.675,292.621 456.341,294.621 455.5,296.5C 452.167,296.5 448.833,296.5 445.5,296.5C 445.5,293.167 445.5,289.833 445.5,286.5C 449.167,286.5 452.833,286.5 456.5,286.5C 456.5,287.833 456.5,289.167 456.5,290.5 Z"/></g>
<g><path style="opacity:1" fill="#d2f4e1" d="M 410.5,285.5 C 414.833,285.5 419.167,285.5 423.5,285.5C 423.5,289.5 423.5,293.5 423.5,297.5C 419.5,297.5 415.5,297.5 411.5,297.5C 411.5,294.167 411.5,290.833 411.5,287.5C 410.662,287.158 410.328,286.492 410.5,285.5 Z"/></g>
<g><path style="opacity:1" fill="#fcfbfd" d="M 411.5,287.5 C 414.962,286.518 418.629,286.185 422.5,286.5C 422.5,289.5 422.5,292.5 422.5,295.5C 419.167,295.5 415.833,295.5 412.5,295.5C 412.806,292.615 412.473,289.948 411.5,287.5 Z"/></g>
<g><path style="opacity:1" fill="#88d0a7" d="M 406.5,285.5 C 407.167,285.5 407.5,285.833 407.5,286.5C 407.5,290.167 407.5,293.833 407.5,297.5C 403.486,297.666 399.486,297.499 395.5,297C 394.594,295.301 394.261,293.467 394.5,291.5C 395.234,292.878 395.901,294.378 396.5,296C 399.817,296.498 403.15,296.665 406.5,296.5C 406.5,292.833 406.5,289.167 406.5,285.5 Z"/></g>
<g><path style="opacity:1" fill="#2eae53" d="M 284.5,227.5 C 286.161,247.478 290.661,266.811 298,285.5C 327.737,350.059 377.57,389.059 447.5,402.5C 447.5,402.833 447.5,403.167 447.5,403.5C 444.482,403.335 441.482,403.502 438.5,404C 446.139,405.315 453.473,407.148 460.5,409.5C 391.44,400.74 338.94,366.74 303,307.5C 291.102,286.308 283.936,263.642 281.5,239.5C 281.168,228.813 281.501,218.146 282.5,207.5C 283.167,214.321 283.833,220.988 284.5,227.5 Z"/></g>
<g><path style="opacity:1" fill="#5aae84" d="M 457.5,299.5 C 457.082,300.222 456.416,300.722 455.5,301C 435.996,301.829 416.662,301.662 397.5,300.5C 417.534,300.798 437.534,300.464 457.5,299.5 Z"/></g>
<g><path style="opacity:1" fill="#257556" d="M 369.5,325.5 C 378.444,324.454 384.11,328.12 386.5,336.5C 384.473,336.662 382.473,336.495 380.5,336C 375.695,330.324 370.861,330.158 366,335.5C 363.075,342.647 365.242,347.314 372.5,349.5C 376.368,349.4 379.035,347.567 380.5,344C 382.473,343.505 384.473,343.338 386.5,343.5C 386.057,348.208 383.724,351.708 379.5,354C 375.605,355.266 371.605,355.766 367.5,355.5C 358.737,349.532 356.404,341.532 360.5,331.5C 363.084,328.72 366.084,326.72 369.5,325.5 Z"/></g>
<g><path style="opacity:1" fill="#257d71" d="M 395.5,324.5 C 396.5,324.5 397.5,324.5 398.5,324.5C 398.5,334.5 398.5,344.5 398.5,354.5C 397.5,354.5 396.5,354.5 395.5,354.5C 394.513,344.547 394.513,334.547 395.5,324.5 Z"/></g>
<g><path style="opacity:1" fill="#287459" d="M 411.5,332.5 C 420.951,331.867 425.618,336.2 425.5,345.5C 420.167,345.5 414.833,345.5 409.5,345.5C 409.297,347.39 409.963,348.89 411.5,350C 415.843,349.849 420.177,349.349 424.5,348.5C 423.603,351.99 421.27,354.156 417.5,355C 406.758,355.579 402.258,350.413 404,339.5C 405.445,335.883 407.945,333.55 411.5,332.5 Z"/></g>
<g><path style="opacity:1" fill="#277557" d="M 499.5,326.5 C 501.833,326.5 504.167,326.5 506.5,326.5C 509.814,335.804 513.147,345.137 516.5,354.5C 512.807,355.056 510.14,353.722 508.5,350.5C 504.555,349.509 500.555,349.176 496.5,349.5C 496.714,351.144 496.38,352.644 495.5,354C 493.098,354.814 490.765,354.647 488.5,353.5C 492.761,344.712 496.427,335.712 499.5,326.5 Z"/></g>
<g><path style="opacity:1" fill="#32775b" d="M 534.5,333.5 C 534.5,335.5 534.5,337.5 534.5,339.5C 531.635,339.055 529.135,339.722 527,341.5C 526.501,345.821 526.334,350.154 526.5,354.5C 524.5,354.5 522.5,354.5 520.5,354.5C 520.5,347.5 520.5,340.5 520.5,333.5C 522.821,333.229 524.821,333.896 526.5,335.5C 528.851,333.771 531.518,333.104 534.5,333.5 Z"/></g>
<g><path style="opacity:1" fill="#297659" d="M 543.5,332.5 C 553.631,331.205 558.964,335.538 559.5,345.5C 553.833,345.5 548.167,345.5 542.5,345.5C 542.137,347.911 543.137,349.411 545.5,350C 549.805,349.488 554.138,349.154 558.5,349C 554.288,355.408 548.622,357.075 541.5,354C 534.311,346.02 534.978,338.854 543.5,332.5 Z"/></g>
<g><path style="opacity:1" fill="#e5f9f0" d="M 411.5,337.5 C 414.908,336.828 417.575,337.828 419.5,340.5C 416.167,341.833 412.833,341.833 409.5,340.5C 410.193,339.482 410.859,338.482 411.5,337.5 Z"/></g>
<g><path style="opacity:1" fill="#c6eff5" d="M 534.5,333.5 C 535.629,335.628 535.796,337.961 535,340.5C 532.502,339.879 530.168,340.545 528,342.5C 527.824,346.688 527.324,350.688 526.5,354.5C 526.334,350.154 526.501,345.821 527,341.5C 529.135,339.722 531.635,339.055 534.5,339.5C 534.5,337.5 534.5,335.5 534.5,333.5 Z"/></g>
<g><path style="opacity:1" fill="#e8f5e8" d="M 545.5,337.5 C 548.908,336.828 551.575,337.828 553.5,340.5C 550.232,341.487 546.898,341.82 543.5,341.5C 543.527,339.801 544.194,338.467 545.5,337.5 Z"/></g>
<g><path style="opacity:1" fill="#2b6e4a" d="M 395.5,324.5 C 394.513,334.547 394.513,344.547 395.5,354.5C 394.5,354.5 393.5,354.5 392.5,354.5C 392.5,344.5 392.5,334.5 392.5,324.5C 393.5,324.5 394.5,324.5 395.5,324.5 Z"/></g>
<g><path style="opacity:1" fill="#2a795e" d="M 465.5,332.5 C 470.311,331.74 473.978,333.407 476.5,337.5C 477.495,343.128 477.829,348.794 477.5,354.5C 475.5,354.5 473.5,354.5 471.5,354.5C 471.666,349.821 471.499,345.155 471,340.5C 468.633,337.068 465.966,336.735 463,339.5C 462.501,344.489 462.334,349.489 462.5,354.5C 460.5,354.5 458.5,354.5 456.5,354.5C 456.5,347.5 456.5,340.5 456.5,333.5C 458.401,333.433 460.234,333.767 462,334.5C 463.459,334.192 464.626,333.525 465.5,332.5 Z"/></g>
<g><path style="opacity:1" fill="#ecf5ea" d="M 501.5,335.5 C 504.42,337.662 506.087,340.662 506.5,344.5C 504.167,344.5 501.833,344.5 499.5,344.5C 500.461,341.574 501.127,338.574 501.5,335.5 Z"/></g>
<g><path style="opacity:1" fill="#f2f5e5" d="M 369.5,325.5 C 366.084,326.72 363.084,328.72 360.5,331.5C 356.404,341.532 358.737,349.532 367.5,355.5C 366.244,355.904 365.077,356.571 364,357.5C 362.56,356.852 361.06,356.519 359.5,356.5C 359.5,354.833 359.5,353.167 359.5,351.5C 358.325,351.719 357.325,351.386 356.5,350.5C 358.062,344.37 357.728,338.37 355.5,332.5C 358.441,330.662 361.274,327.995 364,324.5C 365.699,325.406 367.533,325.739 369.5,325.5 Z"/></g>
<g><path style="opacity:1" fill="#257658" d="M 435.5,332.5 C 440.032,332.074 444.199,333.074 448,335.5C 449.416,341.715 449.916,348.048 449.5,354.5C 447.599,354.567 445.766,354.233 444,353.5C 433.95,358.163 429.283,355.163 430,344.5C 430.903,343.299 432.069,342.465 433.5,342C 436.882,341.824 440.215,341.324 443.5,340.5C 442.885,338.616 441.552,337.616 439.5,337.5C 436.725,338.923 433.725,339.589 430.5,339.5C 431.002,336.331 432.669,333.998 435.5,332.5 Z"/></g>
<g><path style="opacity:1" fill="#dce5de" d="M 436.5,345.5 C 439.167,345.5 441.833,345.5 444.5,345.5C 443.958,348.803 441.958,350.803 438.5,351.5C 435.396,350.443 434.73,348.443 436.5,345.5 Z"/></g>
<g><path style="opacity:1" fill="#277557" d="M 569.5,332.5 C 574.447,331.628 578.613,332.961 582,336.5C 583.41,342.379 583.91,348.379 583.5,354.5C 581.453,354.489 579.453,354.156 577.5,353.5C 572.076,356.678 567.242,356.011 563,351.5C 561.462,346.831 562.962,343.664 567.5,342C 570.817,341.502 574.15,341.335 577.5,341.5C 577.923,338.757 576.756,337.424 574,337.5C 571.081,339.072 567.915,339.739 564.5,339.5C 565.002,336.331 566.669,333.998 569.5,332.5 Z"/></g>
<g><path style="opacity:1" fill="#e5efe9" d="M 570.5,345.5 C 572.833,345.5 575.167,345.5 577.5,345.5C 577.304,348.699 575.637,350.699 572.5,351.5C 568.319,350.495 567.653,348.495 570.5,345.5 Z"/></g>
<g><path style="opacity:1" fill="#e6fef0" d="M 447.5,403.5 C 447.5,403.167 447.5,402.833 447.5,402.5C 455.899,402.673 464.233,403.507 472.5,405C 481.494,405.5 490.494,405.666 499.5,405.5C 482.246,406.931 464.913,406.264 447.5,403.5 Z"/></g>
<g><path style="opacity:1" fill="#3ba35c" d="M 447.5,403.5 C 464.913,406.264 482.246,406.931 499.5,405.5C 503.5,405.5 507.5,405.5 511.5,405.5C 511.5,405.833 511.5,406.167 511.5,406.5C 492.489,407.937 473.489,407.771 454.5,406C 452.073,405.098 449.74,404.264 447.5,403.5 Z"/></g>
<g><path style="opacity:1" fill="#25b14c" d="M 447.5,403.5 C 449.74,404.264 452.073,405.098 454.5,406C 473.489,407.771 492.489,407.937 511.5,406.5C 519.043,406.653 519.043,407.653 511.5,409.5C 494.499,412.143 477.499,412.143 460.5,409.5C 453.473,407.148 446.139,405.315 438.5,404C 441.482,403.502 444.482,403.335 447.5,403.5 Z"/></g>
</svg>
